<svg xmlns="http://www.w3.org/2000/svg" viewBox="0 0 48 48">
  <path fill="#EA4335" d="M24 9.5c3.1 0 5.9 1.1 8.1 2.9l6-6C34.5 2.8 29.6.5 24 .5 14.8.5 6.9 6 3.1 13.9l7 5.4C12.1 13.3 17.6 9.5 24 9.5z"></path>
  <path fill="#4285F4" d="M46.5 24.5c0-1.7-.1-3-.4-4.4H24v8.4h12.7c-.5 2.7-2.1 5-4.4 6.5l6.8 5.3c4-3.7 6.4-9.2 6.4-15.8z"></path>
  <path fill="#FBBC05" d="M10.1 28.9c-.5-1.5-.8-3-.8-4.6s.3-3.1.8-4.6l-7-5.4C1.2 18 0 21 0 24.3s1.2 6.3 3.1 9l7-5.4z"></path>
  <path fill="#34A853" d="M24 48c5.6 0 10.5-1.9 14-5.2l-6.8-5.3c-1.9 1.3-4.4 2.1-7.2 2.1-6.4 0-11.9-3.8-13.9-9.3l-7 5.4C6.9 43 14.8 48 24 48z"></path>
</svg>
